# xmcd
#
# Track frame offsets:
#	150
#	17328
#	40357
#	75009
#	90924
#	104609
#	119563
#	140419
#	165145
#
# Disc length: 2395 seconds
#
# Revision: 1
# Processed by: cddbd v1.5.2PL0 Copyright (c) Steve Scherf et al.
# Submitted via: audiograbber 1.83.01
#
DISCID=5a095909
DTITLE=Space Wind - Trip to Melius
DYEAR=2012
DGENRE=Lokaal
TTITLE0=Space Wind - We want you
TTITLE1=Space Wind - Reborn
TTITLE2=Space Wind - Awake the dragons
TTITLE3=Space Wind - End of the world
TTITLE4=Space Wind - Micro piglets
TTITLE5=Space Wind - Pyroglastic wave
TTITLE6=Space Wind - Misty waves
TTITLE7=Space Wind - Butterfly
TTITLE8=Space Wind - Spacewind
EXTD=
EXTT0=
EXTT1=
EXTT2=
EXTT3=
EXTT4=
EXTT5=
EXTT6=
EXTT7=
EXTT8=
PLAYORDER=
